# xmcd CD database file
# Copyright (C) 1993-1998 Ti Kan
#
# Track frame offsets:
#	151
#	24466
#	57621
#	82354
#	117762
#	142867
#	161742
#	185718
#	202982
#	224118
#	249894
#	266827
#	288242
#	313109
#
# Disc length: 4499 seconds
#
# Revision: 1
# Processed by: cddbd v1.4b41PL1 Copyright (c) Steve Scherf et al.
# Submitted via: NotifyCDPlayer(CDDB) 1.51.3
#
DISCID=da11910e
DTITLE=Eric Clapton - Pilgrim
DYEAR=1900
DGENRE=
TTITLE0=My Father's Eyes
TTITLE1=River Of Tears
TTITLE2=Pilgrim
TTITLE3=Broken Hearted
TTITLE4=One Chance
TTITLE5=Circus
TTITLE6=Going Down Slow
TTITLE7=Fall Like Rain
TTITLE8=Born In Time
TTITLE9=Sick And Tired
TTITLE10=Needs His Woman
TTITLE11=She's Gone
TTITLE12=You Were There
TTITLE13=Inside Of Me
EXTD=
EXTT0=
EXTT1=
EXTT2=
EXTT3=
EXTT4=
EXTT5=
EXTT6=
EXTT7=
EXTT8=
EXTT9=
EXTT10=
EXTT11=
EXTT12=
EXTT13=
PLAYORDER=
